<svg xmlns="http://www.w3.org/2000/svg" xmlns:xlink="http://www.w3.org/1999/xlink" contentStyleType="text/css" data-diagram-type="CLASS" height="301px" preserveAspectRatio="none" style="width:461px;height:301px;background:#FFFFFF;" version="1.1" viewBox="0 0 461 301" width="461px" zoomAndPan="magnify"><defs/><g><!--class MailsToSuppliers--><g class="entity" data-entity="MailsToSuppliers" data-source-line="1" data-uid="ent0002" id="entity_MailsToSuppliers"><rect fill="#F1F1F1" height="162.0781" rx="2.5" ry="2.5" style="stroke:#181818;stroke-width:0.5;" width="167.7842" x="91.6" y="7"/><ellipse cx="114.682" cy="23" fill="#ADD1B2" rx="11" ry="11" style="stroke:#181818;stroke-width:1;"/><path d="M118.7914,29 L111.0726,29 L111.0726,16.6094 L118.7914,16.6094 L118.7914,18.7656 L113.5257,18.7656 L113.5257,21.4375 L118.2914,21.4375 L118.2914,23.5938 L113.5257,23.5938 L113.5257,26.8438 L118.7914,26.8438 L118.7914,29 Z " fill="#000000"/><text fill="#000000" font-family="sans-serif" font-size="14" lengthAdjust="spacing" textLength="117.8242" x="130.478" y="27.8467">MailsToSuppliers</text><line style="stroke:#181818;stroke-width:0.5;" x1="92.6" x2="258.3842" y1="39" y2="39"/><g data-visibility-modifier="IE_MANDATORY"><ellipse cx="102.6" cy="52.6484" fill="#000000" rx="3" ry="3" style="stroke:#000000;stroke-width:1;"/></g><text fill="#000000" font-family="sans-serif" font-size="14" lengthAdjust="spacing" textLength="92.0049" x="111.6" y="55.9951">_id : ObjectId</text><g data-visibility-modifier="IE_MANDATORY"><ellipse cx="102.6" cy="68.9453" fill="#000000" rx="3" ry="3" style="stroke:#000000;stroke-width:1;"/></g><text fill="#000000" font-family="sans-serif" font-size="14" lengthAdjust="spacing" textLength="117.8584" x="111.6" y="72.292">licitacion : String</text><g data-visibility-modifier="IE_MANDATORY"><ellipse cx="102.6" cy="85.2422" fill="#000000" rx="3" ry="3" style="stroke:#000000;stroke-width:1;"/></g><text fill="#000000" font-family="sans-serif" font-size="14" lengthAdjust="spacing" textLength="132.5762" x="111.6" y="88.5889">producto : Number</text><g data-visibility-modifier="IE_MANDATORY"><ellipse cx="102.6" cy="101.5391" fill="#000000" rx="3" ry="3" style="stroke:#000000;stroke-width:1;"/></g><text fill="#000000" font-family="sans-serif" font-size="14" lengthAdjust="spacing" textLength="141.7842" x="111.6" y="104.8857">proveedor : Number</text><g data-visibility-modifier="IE_MANDATORY"><ellipse cx="102.6" cy="117.8359" fill="#000000" rx="3" ry="3" style="stroke:#000000;stroke-width:1;"/></g><text fill="#000000" font-family="sans-serif" font-size="14" lengthAdjust="spacing" textLength="94.0078" x="111.6" y="121.1826">email : String</text><g data-visibility-modifier="IE_MANDATORY"><ellipse cx="102.6" cy="134.1328" fill="#000000" rx="3" ry="3" style="stroke:#000000;stroke-width:1;"/></g><text fill="#000000" font-family="sans-serif" font-size="14" lengthAdjust="spacing" textLength="94.0898" x="111.6" y="137.4795">fecha : String</text><g data-visibility-modifier="IE_MANDATORY"><ellipse cx="102.6" cy="150.4297" fill="#000000" rx="3" ry="3" style="stroke:#000000;stroke-width:1;"/></g><text fill="#000000" font-family="sans-serif" font-size="14" lengthAdjust="spacing" textLength="107.2285" x="111.6" y="153.7764">usuario : String</text><line style="stroke:#181818;stroke-width:0.5;" x1="92.6" x2="258.3842" y1="161.0781" y2="161.0781"/></g><!--class Suppliers--><g class="entity" data-entity="Suppliers" data-source-line="12" data-uid="ent0003" id="entity_Suppliers"><rect fill="#F1F1F1" height="48" rx="2.5" ry="2.5" style="stroke:#181818;stroke-width:0.5;" width="96.9756" x="7" y="246.08"/><ellipse cx="22" cy="262.08" fill="#ADD1B2" rx="11" ry="11" style="stroke:#181818;stroke-width:1;"/><path d="M24.9688,267.7206 Q24.3906,268.0175 23.75,268.1581 Q23.1094,268.3144 22.4063,268.3144 Q19.9063,268.3144 18.5781,266.6738 Q17.2656,265.0175 17.2656,261.8925 Q17.2656,258.7675 18.5781,257.1113 Q19.9063,255.455 22.4063,255.455 Q23.1094,255.455 23.75,255.6112 Q24.4063,255.7675 24.9688,256.0644 L24.9688,258.7831 Q24.3438,258.205 23.75,257.9394 Q23.1563,257.6581 22.5313,257.6581 Q21.1875,257.6581 20.5,258.7363 Q19.8125,259.7988 19.8125,261.8925 Q19.8125,263.9863 20.5,265.0644 Q21.1875,266.1269 22.5313,266.1269 Q23.1563,266.1269 23.75,265.8613 Q24.3438,265.58 24.9688,265.0019 L24.9688,267.7206 Z " fill="#000000"/><text fill="#000000" font-family="sans-serif" font-size="14" lengthAdjust="spacing" textLength="64.9756" x="36" y="266.9267">Suppliers</text><line style="stroke:#181818;stroke-width:0.5;" x1="8" x2="102.9756" y1="278.08" y2="278.08"/><line style="stroke:#181818;stroke-width:0.5;" x1="8" x2="102.9756" y1="286.08" y2="286.08"/></g><!--class Products--><g class="entity" data-entity="Products" data-source-line="13" data-uid="ent0005" id="entity_Products"><rect fill="#F1F1F1" height="48" rx="2.5" ry="2.5" style="stroke:#181818;stroke-width:0.5;" width="93.0039" x="248.99" y="246.08"/><ellipse cx="263.99" cy="262.08" fill="#ADD1B2" rx="11" ry="11" style="stroke:#181818;stroke-width:1;"/><path d="M266.9588,267.7206 Q266.3806,268.0175 265.74,268.1581 Q265.0994,268.3144 264.3963,268.3144 Q261.8963,268.3144 260.5681,266.6738 Q259.2556,265.0175 259.2556,261.8925 Q259.2556,258.7675 260.5681,257.1113 Q261.8963,255.455 264.3963,255.455 Q265.0994,255.455 265.74,255.6112 Q266.3963,255.7675 266.9588,256.0644 L266.9588,258.7831 Q266.3338,258.205 265.74,257.9394 Q265.1463,257.6581 264.5213,257.6581 Q263.1775,257.6581 262.49,258.7363 Q261.8025,259.7988 261.8025,261.8925 Q261.8025,263.9863 262.49,265.0644 Q263.1775,266.1269 264.5213,266.1269 Q265.1463,266.1269 265.74,265.8613 Q266.3338,265.58 266.9588,265.0019 L266.9588,267.7206 Z " fill="#000000"/><text fill="#000000" font-family="sans-serif" font-size="14" lengthAdjust="spacing" textLength="61.0039" x="277.99" y="266.9267">Products</text><line style="stroke:#181818;stroke-width:0.5;" x1="249.99" x2="340.9939" y1="278.08" y2="278.08"/><line style="stroke:#181818;stroke-width:0.5;" x1="249.99" x2="340.9939" y1="286.08" y2="286.08"/></g><!--link MailsToSuppliers to Suppliers--><g class="link" data-entity-1="MailsToSuppliers" data-entity-2="Suppliers" data-source-line="12" data-uid="lnk4" id="link_MailsToSuppliers_Suppliers"><path codeLine="12" d="M78.1356,159.3157 C62.4556,174.3457 61.26,179.46 52.49,199.08 C45.98,213.63 45.5387,223.7402 48.0087,237.8302" fill="none" id="MailsToSuppliers-Suppliers" style="stroke:#181818;stroke-width:1;"/><line style="stroke:#181818;stroke-width:1;" x1="85.3547" x2="86.9781" y1="152.3959" y2="142.5285"/><line style="stroke:#181818;stroke-width:1;" x1="85.3547" x2="95.2819" y1="152.3959" y2="151.1915"/><line style="stroke:#181818;stroke-width:1;" x1="85.3547" x2="91.13" y1="152.3959" y2="146.86"/><ellipse cx="81.0232" cy="156.5478" fill="none" rx="4" ry="4" style="stroke:#181818;stroke-width:1;"/><line style="stroke:#181818;stroke-width:1;" x1="52.6392" x2="44.7594" y1="241.0794" y2="242.4608"/><line style="stroke:#181818;stroke-width:1;" x1="52.1212" x2="44.2414" y1="238.1245" y2="239.5058"/><line style="stroke:#181818;stroke-width:1;" x1="48.0087" x2="49.39" y1="237.8302" y2="245.71"/><text fill="#000000" font-family="sans-serif" font-size="13" lengthAdjust="spacing" textLength="198.2754" x="53.49" y="212.1469">proveedor -&gt; Suppliers.codigo</text></g><!--link MailsToSuppliers to Products--><g class="link" data-entity-1="MailsToSuppliers" data-entity-2="Products" data-source-line="13" data-uid="lnk6" id="link_MailsToSuppliers_Products"><path codeLine="13" d="M246.7492,184.0703 C253.7092,193.9603 250.2,189.3 256.49,199.08 C266.19,214.17 272.2574,224.77 279.6174,238.58" fill="none" id="MailsToSuppliers-Products" style="stroke:#181818;stroke-width:1;"/><line style="stroke:#181818;stroke-width:1;" x1="240.9941" x2="231.4832" y1="175.8923" y2="172.8031"/><line style="stroke:#181818;stroke-width:1;" x1="240.9941" x2="241.2968" y1="175.8923" y2="165.8969"/><line style="stroke:#181818;stroke-width:1;" x1="240.9941" x2="236.39" y1="175.8923" y2="169.35"/><ellipse cx="244.4472" cy="180.7991" fill="none" rx="4" ry="4" style="stroke:#181818;stroke-width:1;"/><line style="stroke:#181818;stroke-width:1;" x1="285.0287" x2="277.9687" y1="240.2287" y2="243.9913"/><line style="stroke:#181818;stroke-width:1;" x1="283.6177" x2="276.5578" y1="237.5812" y2="241.3438"/><line style="stroke:#181818;stroke-width:1;" x1="279.6174" x2="283.38" y1="238.58" y2="245.64"/><text fill="#000000" font-family="sans-serif" font-size="13" lengthAdjust="spacing" textLength="186.0371" x="267.49" y="212.1469">producto -&gt; Products.codigo</text></g><!--SRC=[TS_B2i9030NGVRyYT2C8zGEwSE_21zQzJ6TYZOnDcKT1RF_TeMKOghWz8JUvs3foByZtWhIzSEMxJXCQcuEmy8tmpW3MS2K59Hph1qgtKnDfakI496x3f7A6scRoph3oqd7GWt_MQABsY8hDal4PxYttRoZlOadUUc684uvPje8pwkayMZ2eiHUjGvlz51YvA8O14fIGfs-ARPfi92jgEF-RSPghnOYvPaY87WC-]--></g></svg>