<svg xmlns="http://www.w3.org/2000/svg" xmlns:xlink="http://www.w3.org/1999/xlink" contentStyleType="text/css" data-diagram-type="CLASS" height="366px" preserveAspectRatio="none" style="width:1226px;height:366px;background:#FFFFFF;" version="1.1" viewBox="0 0 1226 366" width="1226px" zoomAndPan="magnify"><defs/><g><!--class Offers--><g class="entity" data-entity="Offers" data-source-line="1" data-uid="ent0002" id="entity_Offers"><rect fill="#F1F1F1" height="227.2656" rx="2.5" ry="2.5" style="stroke:#181818;stroke-width:0.5;" width="167.7842" x="400.71" y="7"/><ellipse cx="459.0821" cy="23" fill="#ADD1B2" rx="11" ry="11" style="stroke:#181818;stroke-width:1;"/><path d="M463.1914,29 L455.4727,29 L455.4727,16.6094 L463.1914,16.6094 L463.1914,18.7656 L457.9258,18.7656 L457.9258,21.4375 L462.6914,21.4375 L462.6914,23.5938 L457.9258,23.5938 L457.9258,26.8438 L463.1914,26.8438 L463.1914,29 Z " fill="#000000"/><text fill="#000000" font-family="sans-serif" font-size="14" lengthAdjust="spacing" textLength="42.54" x="479.5821" y="27.8467">Offers</text><line style="stroke:#181818;stroke-width:0.5;" x1="401.71" x2="567.4942" y1="39" y2="39"/><g data-visibility-modifier="IE_MANDATORY"><ellipse cx="411.71" cy="52.6484" fill="#000000" rx="3" ry="3" style="stroke:#000000;stroke-width:1;"/></g><text fill="#000000" font-family="sans-serif" font-size="14" lengthAdjust="spacing" textLength="92.0049" x="420.71" y="55.9951">_id : ObjectId</text><g data-visibility-modifier="IE_MANDATORY"><ellipse cx="411.71" cy="68.9453" fill="#000000" rx="3" ry="3" style="stroke:#000000;stroke-width:1;"/></g><text fill="#000000" font-family="sans-serif" font-size="14" lengthAdjust="spacing" textLength="111.7881" x="420.71" y="72.292">oferta : Number</text><g data-visibility-modifier="IE_MANDATORY"><ellipse cx="411.71" cy="85.2422" fill="#000000" rx="3" ry="3" style="stroke:#000000;stroke-width:1;"/></g><text fill="#000000" font-family="sans-serif" font-size="14" lengthAdjust="spacing" textLength="117.8584" x="420.71" y="88.5889">licitacion : String</text><g data-visibility-modifier="IE_MANDATORY"><ellipse cx="411.71" cy="101.5391" fill="#000000" rx="3" ry="3" style="stroke:#000000;stroke-width:1;"/></g><text fill="#000000" font-family="sans-serif" font-size="14" lengthAdjust="spacing" textLength="137.6348" x="420.71" y="104.8857">licitacion_id : String</text><g data-visibility-modifier="IE_MANDATORY"><ellipse cx="411.71" cy="117.8359" fill="#000000" rx="3" ry="3" style="stroke:#000000;stroke-width:1;"/></g><text fill="#000000" font-family="sans-serif" font-size="14" lengthAdjust="spacing" textLength="107.2285" x="420.71" y="121.1826">usuario : String</text><g data-visibility-modifier="IE_MANDATORY"><ellipse cx="411.71" cy="134.1328" fill="#000000" rx="3" ry="3" style="stroke:#000000;stroke-width:1;"/></g><text fill="#000000" font-family="sans-serif" font-size="14" lengthAdjust="spacing" textLength="141.7842" x="420.71" y="137.4795">proveedor : Number</text><g data-visibility-modifier="IE_MANDATORY"><ellipse cx="411.71" cy="150.4297" fill="#000000" rx="3" ry="3" style="stroke:#000000;stroke-width:1;"/></g><text fill="#000000" font-family="sans-serif" font-size="14" lengthAdjust="spacing" textLength="132.5762" x="420.71" y="153.7764">producto : Number</text><g data-visibility-modifier="IE_MANDATORY"><ellipse cx="411.71" cy="166.7266" fill="#000000" rx="3" ry="3" style="stroke:#000000;stroke-width:1;"/></g><text fill="#000000" font-family="sans-serif" font-size="14" lengthAdjust="spacing" textLength="130.7373" x="420.71" y="170.0732">cantidad : Number</text><g data-visibility-modifier="IE_MANDATORY"><ellipse cx="411.71" cy="183.0234" fill="#000000" rx="3" ry="3" style="stroke:#000000;stroke-width:1;"/></g><text fill="#000000" font-family="sans-serif" font-size="14" lengthAdjust="spacing" textLength="113.2646" x="420.71" y="186.3701">precio : Number</text><g data-visibility-modifier="IE_MANDATORY"><ellipse cx="411.71" cy="199.3203" fill="#000000" rx="3" ry="3" style="stroke:#000000;stroke-width:1;"/></g><text fill="#000000" font-family="sans-serif" font-size="14" lengthAdjust="spacing" textLength="117.2842" x="420.71" y="202.667">estado : Number</text><g data-visibility-modifier="IE_MANDATORY"><ellipse cx="411.71" cy="215.6172" fill="#000000" rx="3" ry="3" style="stroke:#000000;stroke-width:1;"/></g><text fill="#000000" font-family="sans-serif" font-size="14" lengthAdjust="spacing" textLength="85.7705" x="420.71" y="218.9639">fecha : Date</text><line style="stroke:#181818;stroke-width:0.5;" x1="401.71" x2="567.4942" y1="226.2656" y2="226.2656"/></g><!--class Users--><g class="entity" data-entity="Users" data-source-line="16" data-uid="ent0003" id="entity_Users"><rect fill="#F1F1F1" height="48" rx="2.5" ry="2.5" style="stroke:#181818;stroke-width:0.5;" width="71.2041" x="7" y="311.27"/><ellipse cx="22" cy="327.27" fill="#ADD1B2" rx="11" ry="11" style="stroke:#181818;stroke-width:1;"/><path d="M24.9688,332.9106 Q24.3906,333.2075 23.75,333.3481 Q23.1094,333.5044 22.4063,333.5044 Q19.9063,333.5044 18.5781,331.8638 Q17.2656,330.2075 17.2656,327.0825 Q17.2656,323.9575 18.5781,322.3013 Q19.9063,320.645 22.4063,320.645 Q23.1094,320.645 23.75,320.8013 Q24.4063,320.9575 24.9688,321.2544 L24.9688,323.9731 Q24.3438,323.395 23.75,323.1294 Q23.1563,322.8481 22.5313,322.8481 Q21.1875,322.8481 20.5,323.9263 Q19.8125,324.9888 19.8125,327.0825 Q19.8125,329.1763 20.5,330.2544 Q21.1875,331.3169 22.5313,331.3169 Q23.1563,331.3169 23.75,331.0513 Q24.3438,330.77 24.9688,330.1919 L24.9688,332.9106 Z " fill="#000000"/><text fill="#000000" font-family="sans-serif" font-size="14" lengthAdjust="spacing" textLength="39.2041" x="36" y="332.1167">Users</text><line style="stroke:#181818;stroke-width:0.5;" x1="8" x2="77.2041" y1="343.27" y2="343.27"/><line style="stroke:#181818;stroke-width:0.5;" x1="8" x2="77.2041" y1="351.27" y2="351.27"/></g><!--class Suppliers--><g class="entity" data-entity="Suppliers" data-source-line="17" data-uid="ent0005" id="entity_Suppliers"><rect fill="#F1F1F1" height="48" rx="2.5" ry="2.5" style="stroke:#181818;stroke-width:0.5;" width="96.9756" x="196.11" y="311.27"/><ellipse cx="211.11" cy="327.27" fill="#ADD1B2" rx="11" ry="11" style="stroke:#181818;stroke-width:1;"/><path d="M214.0788,332.9106 Q213.5006,333.2075 212.86,333.3481 Q212.2194,333.5044 211.5163,333.5044 Q209.0163,333.5044 207.6881,331.8638 Q206.3756,330.2075 206.3756,327.0825 Q206.3756,323.9575 207.6881,322.3013 Q209.0163,320.645 211.5163,320.645 Q212.2194,320.645 212.86,320.8013 Q213.5163,320.9575 214.0788,321.2544 L214.0788,323.9731 Q213.4538,323.395 212.86,323.1294 Q212.2663,322.8481 211.6413,322.8481 Q210.2975,322.8481 209.61,323.9263 Q208.9225,324.9888 208.9225,327.0825 Q208.9225,329.1763 209.61,330.2544 Q210.2975,331.3169 211.6413,331.3169 Q212.2663,331.3169 212.86,331.0513 Q213.4538,330.77 214.0788,330.1919 L214.0788,332.9106 Z " fill="#000000"/><text fill="#000000" font-family="sans-serif" font-size="14" lengthAdjust="spacing" textLength="64.9756" x="225.11" y="332.1167">Suppliers</text><line style="stroke:#181818;stroke-width:0.5;" x1="197.11" x2="292.0856" y1="343.27" y2="343.27"/><line style="stroke:#181818;stroke-width:0.5;" x1="197.11" x2="292.0856" y1="351.27" y2="351.27"/></g><!--class Products--><g class="entity" data-entity="Products" data-source-line="18" data-uid="ent0007" id="entity_Products"><rect fill="#F1F1F1" height="48" rx="2.5" ry="2.5" style="stroke:#181818;stroke-width:0.5;" width="93.0039" x="438.1" y="311.27"/><ellipse cx="453.1" cy="327.27" fill="#ADD1B2" rx="11" ry="11" style="stroke:#181818;stroke-width:1;"/><path d="M456.0688,332.9106 Q455.4906,333.2075 454.85,333.3481 Q454.2094,333.5044 453.5063,333.5044 Q451.0063,333.5044 449.6781,331.8638 Q448.3656,330.2075 448.3656,327.0825 Q448.3656,323.9575 449.6781,322.3013 Q451.0063,320.645 453.5063,320.645 Q454.2094,320.645 454.85,320.8013 Q455.5063,320.9575 456.0688,321.2544 L456.0688,323.9731 Q455.4438,323.395 454.85,323.1294 Q454.2563,322.8481 453.6313,322.8481 Q452.2875,322.8481 451.6,323.9263 Q450.9125,324.9888 450.9125,327.0825 Q450.9125,329.1763 451.6,330.2544 Q452.2875,331.3169 453.6313,331.3169 Q454.2563,331.3169 454.85,331.0513 Q455.4438,330.77 456.0688,330.1919 L456.0688,332.9106 Z " fill="#000000"/><text fill="#000000" font-family="sans-serif" font-size="14" lengthAdjust="spacing" textLength="61.0039" x="467.1" y="332.1167">Products</text><line style="stroke:#181818;stroke-width:0.5;" x1="439.1" x2="530.1039" y1="343.27" y2="343.27"/><line style="stroke:#181818;stroke-width:0.5;" x1="439.1" x2="530.1039" y1="351.27" y2="351.27"/></g><!--class Uploads--><g class="entity" data-entity="Uploads" data-source-line="19" data-uid="ent0009" id="entity_Uploads"><rect fill="#F1F1F1" height="48" rx="2.5" ry="2.5" style="stroke:#181818;stroke-width:0.5;" width="88.3486" x="668.43" y="311.27"/><ellipse cx="683.43" cy="327.27" fill="#ADD1B2" rx="11" ry="11" style="stroke:#181818;stroke-width:1;"/><path d="M686.3988,332.9106 Q685.8206,333.2075 685.18,333.3481 Q684.5394,333.5044 683.8363,333.5044 Q681.3363,333.5044 680.0081,331.8638 Q678.6956,330.2075 678.6956,327.0825 Q678.6956,323.9575 680.0081,322.3013 Q681.3363,320.645 683.8363,320.645 Q684.5394,320.645 685.18,320.8013 Q685.8363,320.9575 686.3988,321.2544 L686.3988,323.9731 Q685.7738,323.395 685.18,323.1294 Q684.5863,322.8481 683.9613,322.8481 Q682.6175,322.8481 681.93,323.9263 Q681.2425,324.9888 681.2425,327.0825 Q681.2425,329.1763 681.93,330.2544 Q682.6175,331.3169 683.9613,331.3169 Q684.5863,331.3169 685.18,331.0513 Q685.7738,330.77 686.3988,330.1919 L686.3988,332.9106 Z " fill="#000000"/><text fill="#000000" font-family="sans-serif" font-size="14" lengthAdjust="spacing" textLength="56.3486" x="697.43" y="332.1167">Uploads</text><line style="stroke:#181818;stroke-width:0.5;" x1="669.43" x2="755.7786" y1="343.27" y2="343.27"/><line style="stroke:#181818;stroke-width:0.5;" x1="669.43" x2="755.7786" y1="351.27" y2="351.27"/></g><!--class Tenders--><g class="entity" data-entity="Tenders" data-source-line="20" data-uid="ent0011" id="entity_Tenders"><rect fill="#F1F1F1" height="48" rx="2.5" ry="2.5" style="stroke:#181818;stroke-width:0.5;" width="88.5879" x="933.31" y="311.27"/><ellipse cx="948.31" cy="327.27" fill="#ADD1B2" rx="11" ry="11" style="stroke:#181818;stroke-width:1;"/><path d="M951.2788,332.9106 Q950.7006,333.2075 950.06,333.3481 Q949.4194,333.5044 948.7163,333.5044 Q946.2163,333.5044 944.8881,331.8638 Q943.5756,330.2075 943.5756,327.0825 Q943.5756,323.9575 944.8881,322.3013 Q946.2163,320.645 948.7163,320.645 Q949.4194,320.645 950.06,320.8013 Q950.7163,320.9575 951.2788,321.2544 L951.2788,323.9731 Q950.6538,323.395 950.06,323.1294 Q949.4663,322.8481 948.8413,322.8481 Q947.4975,322.8481 946.81,323.9263 Q946.1225,324.9888 946.1225,327.0825 Q946.1225,329.1763 946.81,330.2544 Q947.4975,331.3169 948.8413,331.3169 Q949.4663,331.3169 950.06,331.0513 Q950.6538,330.77 951.2788,330.1919 L951.2788,332.9106 Z " fill="#000000"/><text fill="#000000" font-family="sans-serif" font-size="14" lengthAdjust="spacing" textLength="56.5879" x="962.31" y="332.1167">Tenders</text><line style="stroke:#181818;stroke-width:0.5;" x1="934.31" x2="1020.8979" y1="343.27" y2="343.27"/><line style="stroke:#181818;stroke-width:0.5;" x1="934.31" x2="1020.8979" y1="351.27" y2="351.27"/></g><!--link Offers to Users--><g class="link" data-entity-1="Offers" data-entity-2="Users" data-source-line="16" data-uid="lnk4" id="link_Offers_Users"><path codeLine="16" d="M382.6781,141.2869 C298.4481,160.2169 186.1,194.61 93.6,264.27 C77.15,276.66 67.7691,288.9521 58.8191,304.1021" fill="none" id="Offers-Users" style="stroke:#181818;stroke-width:1;"/><line style="stroke:#181818;stroke-width:1;" x1="392.4347" x2="398.9244" y1="139.0942" y2="131.486"/><line style="stroke:#181818;stroke-width:1;" x1="392.4347" x2="401.5556" y1="139.0942" y2="143.194"/><line style="stroke:#181818;stroke-width:1;" x1="392.4347" x2="400.24" y1="139.0942" y2="137.34"/><ellipse cx="386.5807" cy="140.4098" fill="none" rx="4" ry="4" style="stroke:#181818;stroke-width:1;"/><line style="stroke:#181818;stroke-width:1;" x1="60.2285" x2="53.3406" y1="309.5806" y2="305.5115"/><line style="stroke:#181818;stroke-width:1;" x1="61.7544" x2="54.8665" y1="306.9977" y2="302.9286"/><line style="stroke:#181818;stroke-width:1;" x1="58.8191" x2="54.75" y1="304.1021" y2="310.99"/><text fill="#000000" font-family="sans-serif" font-size="13" lengthAdjust="spacing" textLength="160.6401" x="94.6" y="277.3369">usuario -&gt; Users.usuario</text></g><!--link Offers to Suppliers--><g class="link" data-entity-1="Offers" data-entity-2="Suppliers" data-source-line="17" data-uid="lnk6" id="link_Offers_Suppliers"><path codeLine="17" d="M384.6519,172.2933 C342.0419,196.8333 307.85,222.31 273.6,264.27 C262.46,277.93 257.4099,288.8222 252.8699,303.3922" fill="none" id="Offers-Suppliers" style="stroke:#181818;stroke-width:1;"/><line style="stroke:#181818;stroke-width:1;" x1="393.3175" x2="397.2556" y1="167.3026" y2="158.1106"/><line style="stroke:#181818;stroke-width:1;" x1="393.3175" x2="403.2444" y1="167.3026" y2="168.5094"/><line style="stroke:#181818;stroke-width:1;" x1="393.3175" x2="400.25" y1="167.3026" y2="163.31"/><ellipse cx="388.1181" cy="170.297" fill="none" rx="4" ry="4" style="stroke:#181818;stroke-width:1;"/><line style="stroke:#181818;stroke-width:1;" x1="255.4989" x2="247.8611" y1="308.4011" y2="306.0211"/><line style="stroke:#181818;stroke-width:1;" x1="256.3913" x2="248.7535" y1="305.5369" y2="303.157"/><line style="stroke:#181818;stroke-width:1;" x1="252.8699" x2="250.49" y1="303.3922" y2="311.03"/><text fill="#000000" font-family="sans-serif" font-size="13" lengthAdjust="spacing" textLength="198.2754" x="274.6" y="277.3369">proveedor -&gt; Suppliers.codigo</text></g><!--link Offers to Products--><g class="link" data-entity-1="Offers" data-entity-2="Products" data-source-line="18" data-uid="lnk8" id="link_Offers_Products"><path codeLine="18" d="M481.0567,252.5797 C480.9667,268.2597 481.18,266.17 481.6,281.27 C481.88,290.94 481.9439,293.6148 482.5039,302.8148" fill="none" id="Offers-Products" style="stroke:#181818;stroke-width:1;"/><line style="stroke:#181818;stroke-width:1;" x1="481.1141" x2="475.1601" y1="242.5799" y2="234.5456"/><line style="stroke:#181818;stroke-width:1;" x1="481.1141" x2="487.1599" y1="242.5799" y2="234.6144"/><line style="stroke:#181818;stroke-width:1;" x1="481.1141" x2="481.16" y1="242.5799" y2="234.58"/><ellipse cx="481.0796" cy="248.5798" fill="none" rx="4" ry="4" style="stroke:#181818;stroke-width:1;"/><line style="stroke:#181818;stroke-width:1;" x1="486.7396" x2="478.7544" y1="306.5644" y2="307.0504"/><line style="stroke:#181818;stroke-width:1;" x1="486.5573" x2="478.5721" y1="303.5699" y2="304.056"/><line style="stroke:#181818;stroke-width:1;" x1="482.5039" x2="482.99" y1="302.8148" y2="310.8"/><text fill="#000000" font-family="sans-serif" font-size="13" lengthAdjust="spacing" textLength="186.0371" x="482.6" y="277.3369">producto -&gt; Products.codigo</text></g><!--link Offers to Uploads--><g class="link" data-entity-1="Offers" data-entity-2="Uploads" data-source-line="19" data-uid="lnk10" id="link_Offers_Uploads"><path codeLine="19" d="M575.5413,178.527 C610.6913,203.047 643.64,229.85 673.6,264.27 C685.75,278.23 688.0629,280.3177 694.9229,294.7277" fill="none" id="Offers-Uploads" style="stroke:#181818;stroke-width:1;"/><line style="stroke:#181818;stroke-width:1;" x1="569.9721" x2="574.5492" y1="179.5192" y2="172.9579"/><line style="stroke:#181818;stroke-width:1;" x1="572.4326" x2="577.0097" y1="181.2356" y2="174.6743"/><line style="stroke:#181818;stroke-width:1;" x1="575.5413" x2="568.98" y1="178.527" y2="173.95"/><line style="stroke:#181818;stroke-width:1;" x1="699.2213" x2="708.0774" y1="303.7567" y2="308.401"/><line style="stroke:#181818;stroke-width:1;" x1="699.2213" x2="697.2426" y1="303.7567" y2="313.559"/><line style="stroke:#181818;stroke-width:1;" x1="699.2213" x2="702.66" y1="303.7567" y2="310.98"/><ellipse cx="696.6423" cy="298.3393" fill="none" rx="4" ry="4" style="stroke:#181818;stroke-width:1;"/><text fill="#000000" font-family="sans-serif" font-size="13" lengthAdjust="spacing" textLength="223.0122" x="686.6" y="277.3369">Offers.upload (refs to Uploads._id)</text></g><!--link Offers to Tenders--><g class="link" data-entity-1="Offers" data-entity-2="Tenders" data-source-line="20" data-uid="lnk12" id="link_Offers_Tenders"><path codeLine="20" d="M586.2741,138.4598 C678.4341,156.2398 809.99,190.92 918.6,264.27 C936.65,276.46 947.6972,289.0927 958.3272,304.3027" fill="none" id="Offers-Tenders" style="stroke:#181818;stroke-width:1;"/><line style="stroke:#181818;stroke-width:1;" x1="576.4552" x2="567.4634" y1="136.5655" y2="140.9414"/><line style="stroke:#181818;stroke-width:1;" x1="576.4552" x2="569.7366" y1="136.5655" y2="129.1586"/><line style="stroke:#181818;stroke-width:1;" x1="576.4552" x2="568.6" y1="136.5655" y2="135.05"/><ellipse cx="582.3465" cy="137.7021" fill="none" rx="4" ry="4" style="stroke:#181818;stroke-width:1;"/><line style="stroke:#181818;stroke-width:1;" x1="963.8973" x2="957.34" y1="305.29" y2="309.8727"/><line style="stroke:#181818;stroke-width:1;" x1="962.1787" x2="955.6214" y1="302.831" y2="307.4138"/><line style="stroke:#181818;stroke-width:1;" x1="958.3272" x2="962.91" y1="304.3027" y2="310.86"/><text fill="#000000" font-family="sans-serif" font-size="13" lengthAdjust="spacing" textLength="280.0142" x="938.6" y="277.3369">licitacion_id -&gt; Tenders._id (cuando aplica)</text></g><!--SRC=[PP7BJiCm44Nt-OfHDhH8oGTqmOeD6ueeNLTJUrACKZloerBLzD-Ps0uGixFFdJjFqbxvAzJRhYFhQa07wGct2k0H3ah21hR7BnB-HKPaMFR8z3MSZsGZwvLG7eKocldEMwLF1K-9_aZ11RJABE5WpOL86hjCprW6uSsI2kJc9SeobeGg8ibvb0NhI7nEKpoZf-fULG_mJdribHnOwkd2wSbLUHrtqpJZ27itVJPGp-qtJucr6TI5OHU6eLVPz3iUstwKLXYfJl-SRsdesPWMmBwPbxPnR1fpW_tG6vJHbOGsH08hIvq3pf4ZMZx9kYpwGLhcPfUtuy9Pctom4W4rhnHv187h-Xi0]--></g></svg>