<svg xmlns="http://www.w3.org/2000/svg" xmlns:xlink="http://www.w3.org/1999/xlink" contentStyleType="text/css" data-diagram-type="CLASS" height="284px" preserveAspectRatio="none" style="width:410px;height:284px;background:#FFFFFF;" version="1.1" viewBox="0 0 410 284" width="410px" zoomAndPan="magnify"><defs/><g><!--class SettingScorings--><g class="entity" data-entity="SettingScorings" data-source-line="1" data-uid="ent0002" id="entity_SettingScorings"><rect fill="#F1F1F1" height="145.7813" rx="2.5" ry="2.5" style="stroke:#181818;stroke-width:0.5;" width="142.3477" x="7" y="7"/><ellipse cx="22.167" cy="23" fill="#ADD1B2" rx="11" ry="11" style="stroke:#181818;stroke-width:1;"/><path d="M26.2764,29 L18.5576,29 L18.5576,16.6094 L26.2764,16.6094 L26.2764,18.7656 L21.0107,18.7656 L21.0107,21.4375 L25.7764,21.4375 L25.7764,23.5938 L21.0107,23.5938 L21.0107,26.8438 L26.2764,26.8438 L26.2764,29 Z " fill="#000000"/><text fill="#000000" font-family="sans-serif" font-size="14" lengthAdjust="spacing" textLength="109.9766" x="36.2041" y="27.8467">SettingScorings</text><line style="stroke:#181818;stroke-width:0.5;" x1="8" x2="148.3477" y1="39" y2="39"/><g data-visibility-modifier="IE_MANDATORY"><ellipse cx="18" cy="52.6484" fill="#000000" rx="3" ry="3" style="stroke:#000000;stroke-width:1;"/></g><text fill="#000000" font-family="sans-serif" font-size="14" lengthAdjust="spacing" textLength="92.0049" x="27" y="55.9951">_id : ObjectId</text><g data-visibility-modifier="IE_MANDATORY"><ellipse cx="18" cy="68.9453" fill="#000000" rx="3" ry="3" style="stroke:#000000;stroke-width:1;"/></g><text fill="#000000" font-family="sans-serif" font-size="14" lengthAdjust="spacing" textLength="116.3477" x="27" y="72.292">codigo : Number</text><g data-visibility-modifier="IE_MANDATORY"><ellipse cx="18" cy="85.2422" fill="#000000" rx="3" ry="3" style="stroke:#000000;stroke-width:1;"/></g><text fill="#000000" font-family="sans-serif" font-size="14" lengthAdjust="spacing" textLength="109.7305" x="27" y="88.5889">nombre : String</text><g data-visibility-modifier="IE_MANDATORY"><ellipse cx="18" cy="101.5391" fill="#000000" rx="3" ry="3" style="stroke:#000000;stroke-width:1;"/></g><text fill="#000000" font-family="sans-serif" font-size="14" lengthAdjust="spacing" textLength="103.2158" x="27" y="104.8857">peso : Number</text><g data-visibility-modifier="IE_MANDATORY"><ellipse cx="18" cy="117.8359" fill="#000000" rx="3" ry="3" style="stroke:#000000;stroke-width:1;"/></g><text fill="#000000" font-family="sans-serif" font-size="14" lengthAdjust="spacing" textLength="111.877" x="27" y="121.1826">variable : String</text><g data-visibility-modifier="IE_MANDATORY"><ellipse cx="18" cy="134.1328" fill="#000000" rx="3" ry="3" style="stroke:#000000;stroke-width:1;"/></g><text fill="#000000" font-family="sans-serif" font-size="14" lengthAdjust="spacing" textLength="112.8135" x="27" y="137.4795">activo : Boolean</text><line style="stroke:#181818;stroke-width:0.5;" x1="8" x2="148.3477" y1="144.7813" y2="144.7813"/></g><!--class Suppliers--><g class="entity" data-entity="Suppliers" data-source-line="11" data-uid="ent0003" id="entity_Suppliers"><rect fill="#F1F1F1" height="48" rx="2.5" ry="2.5" style="stroke:#181818;stroke-width:0.5;" width="96.9756" x="29.69" y="229.78"/><ellipse cx="44.69" cy="245.78" fill="#ADD1B2" rx="11" ry="11" style="stroke:#181818;stroke-width:1;"/><path d="M47.6588,251.4206 Q47.0806,251.7175 46.44,251.8581 Q45.7994,252.0144 45.0963,252.0144 Q42.5963,252.0144 41.2681,250.3737 Q39.9556,248.7175 39.9556,245.5925 Q39.9556,242.4675 41.2681,240.8112 Q42.5963,239.155 45.0963,239.155 Q45.7994,239.155 46.44,239.3112 Q47.0963,239.4675 47.6588,239.7644 L47.6588,242.4831 Q47.0338,241.905 46.44,241.6394 Q45.8463,241.3581 45.2213,241.3581 Q43.8775,241.3581 43.19,242.4362 Q42.5025,243.4987 42.5025,245.5925 Q42.5025,247.6862 43.19,248.7644 Q43.8775,249.8269 45.2213,249.8269 Q45.8463,249.8269 46.44,249.5612 Q47.0338,249.28 47.6588,248.7019 L47.6588,251.4206 Z " fill="#000000"/><text fill="#000000" font-family="sans-serif" font-size="14" lengthAdjust="spacing" textLength="64.9756" x="58.69" y="250.6267">Suppliers</text><line style="stroke:#181818;stroke-width:0.5;" x1="30.69" x2="125.6656" y1="261.78" y2="261.78"/><line style="stroke:#181818;stroke-width:0.5;" x1="30.69" x2="125.6656" y1="269.78" y2="269.78"/></g><!--link SettingScorings to Suppliers--><g class="link" data-entity-1="SettingScorings" data-entity-2="Suppliers" data-source-line="11" data-uid="lnk4" id="link_SettingScorings_Suppliers"><path codeLine="11" d="M78.17,160.79 C78.17,188.21 78.17,201.58 78.17,221.35" fill="none" id="SettingScorings-Suppliers" style="stroke:#181818;stroke-width:1;stroke-dasharray:7,7;"/><line style="stroke:#181818;stroke-width:1;" x1="74.17" x2="82.17" y1="156.79" y2="156.79"/><line style="stroke:#181818;stroke-width:1;" x1="74.17" x2="82.17" y1="159.79" y2="159.79"/><line style="stroke:#181818;stroke-width:1;" x1="78.17" x2="78.17" y1="160.79" y2="152.79"/><line style="stroke:#181818;stroke-width:1;" x1="82.17" x2="74.17" y1="225.35" y2="225.35"/><line style="stroke:#181818;stroke-width:1;" x1="82.17" x2="74.17" y1="222.35" y2="222.35"/><line style="stroke:#181818;stroke-width:1;" x1="78.17" x2="78.17" y1="221.35" y2="229.35"/><text fill="#000000" font-family="sans-serif" font-size="13" lengthAdjust="spacing" textLength="323.6289" x="79.17" y="195.8469">criterios aplicados a proveedores (l&#243;gica externa)</text></g><!--SRC=[NOunRiCm34LtdOBmahH33f2nMvOMg0yGqDA7mK8H3OenMiGvLO_GYrNsw8d4-uyVH77n7-fwk4iP-wZMHks8A-qOFGBHArqbqPa-XYz4lwGDHKqoQgFlzzi0srZHss1ehFVrUcCJwiwQsOI7lFCukioh-QQQmIKyGpZG9p97qO9AXeoPYwE6_PFBSZej2_NtQSe2gwsbYoOE4wt43KPEwqQJwGmajLPup7-_Oqi8tyqi_DBz0m00]--></g></svg>